<mxfile host="app.diagrams.net" modified="2023-02-01T04:11:14.730Z" agent="5.0 (Windows NT 10.0; Win64; x64) AppleWebKit/537.36 (KHTML, like Gecko) Chrome/109.0.0.0 Safari/537.36" etag="m7InJdB35pG3mu9GTBl6" version="20.8.10" type="github">
  <diagram name="Page-1" id="vvj_6Ffx3pZRZ6jQJS-Z">
    <mxGraphModel dx="794" dy="470" grid="1" gridSize="10" guides="1" tooltips="1" connect="1" arrows="1" fold="1" page="1" pageScale="1" pageWidth="850" pageHeight="1100" math="0" shadow="0">
      <root>
        <mxCell id="0" />
        <mxCell id="1" parent="0" />
        <mxCell id="_p2IHeMZrTxMRXlRe7gt-9" value="" style="rounded=1;whiteSpace=wrap;html=1;" vertex="1" parent="1">
          <mxGeometry x="190" y="320" width="540" height="440" as="geometry" />
        </mxCell>
        <mxCell id="_p2IHeMZrTxMRXlRe7gt-16" style="edgeStyle=orthogonalEdgeStyle;rounded=0;orthogonalLoop=1;jettySize=auto;html=1;" edge="1" parent="1" source="_p2IHeMZrTxMRXlRe7gt-1" target="_p2IHeMZrTxMRXlRe7gt-3">
          <mxGeometry relative="1" as="geometry" />
        </mxCell>
        <mxCell id="_p2IHeMZrTxMRXlRe7gt-17" style="edgeStyle=orthogonalEdgeStyle;rounded=0;orthogonalLoop=1;jettySize=auto;html=1;" edge="1" parent="1" source="_p2IHeMZrTxMRXlRe7gt-1" target="_p2IHeMZrTxMRXlRe7gt-7">
          <mxGeometry relative="1" as="geometry" />
        </mxCell>
        <mxCell id="_p2IHeMZrTxMRXlRe7gt-22" value="" style="edgeStyle=orthogonalEdgeStyle;rounded=0;orthogonalLoop=1;jettySize=auto;html=1;" edge="1" parent="1" source="_p2IHeMZrTxMRXlRe7gt-1" target="_p2IHeMZrTxMRXlRe7gt-3">
          <mxGeometry relative="1" as="geometry" />
        </mxCell>
        <mxCell id="_p2IHeMZrTxMRXlRe7gt-25" style="edgeStyle=orthogonalEdgeStyle;rounded=0;orthogonalLoop=1;jettySize=auto;html=1;" edge="1" parent="1" source="_p2IHeMZrTxMRXlRe7gt-1" target="_p2IHeMZrTxMRXlRe7gt-6">
          <mxGeometry relative="1" as="geometry" />
        </mxCell>
        <mxCell id="_p2IHeMZrTxMRXlRe7gt-1" value="SAP Build" style="shape=image;verticalLabelPosition=bottom;verticalAlign=top;imageAspect=0;aspect=fixed;image=data:image/svg+xml,PHN2ZyB4bWxucz0iaHR0cDovL3d3dy53My5vcmcvMjAwMC9zdmciIGlkPSJzYXAtYXBwbGljYXRpb24tc3R1ZGlvX2Zvcm1lcl9XZWJfSURFXyIgZGF0YS1uYW1lPSJzYXAtYXBwbGljYXRpb24tc3R1ZGlvIChmb3JtZXIgV2ViIElERSkiIHZpZXdCb3g9IjQuMDAwMDAxOTA3MzQ4NjMzIDMuOTk5OTk5MDQ2MzI1NjgzNiA0OCA0Ny45OTk5OTYxODUzMDI3MzQiIHdpZHRoPSI0OCIgaGVpZ2h0PSI0Ny45OTk5OTYxODUzMDI3MzQiPjxkZWZzPjxzdHlsZT4uY2xzLTF7ZmlsbDojMDc0ZDkyO30uY2xzLTJ7ZmlsbDojMDUzYjcwO30uY2xzLTN7ZmlsbDojMGE2ZWQxO308L3N0eWxlPjwvZGVmcz48dGl0bGU+c2FwLWFwcGxpY2F0aW9uLXN0dWRpb19jaXJjbGU8L3RpdGxlPjxwYXRoIGNsYXNzPSJjbHMtMSIgZD0iTTI4LDZBMjIsMjIsMCwxLDEsNiwyOCwyMi4wMjUsMjIuMDI1LDAsMCwxLDI4LDZtMC0yQTI0LDI0LDAsMSwwLDUyLDI4LDI0LDI0LDAsMCwwLDI4LDRaIi8+PHBvbHlnb24gY2xhc3M9ImNscy0yIiBwb2ludHM9IjI5LjI0OSAyNC44MTIgMjguMzM1IDI0LjIzMiAyNy40MjcgMjMuNjU2IDI3LjE2OCAyMy40OTIgMjYuODYzIDIzLjMwMSAyNi41NDYgMjMuNDY5IDE1Ljk3OCAyOS4wNjQgMTUuNjc4IDI5LjIyNCAxNS42NDkgMjkuNTYxIDE1LjUzOSAzMC44NDIgMTUuNDQzIDMxLjk2NyAxNi40NDQgMzEuNDQ3IDI4LjI4OSAyNS4zMDkgMjkuMjQ5IDI0LjgxMiIvPjxwb2x5Z29uIGNsYXNzPSJjbHMtMiIgcG9pbnRzPSIxNi43NjYgMjcuMzY1IDI0Ljg0NyAyMy4xMTkgMjUuODAyIDIyLjYxNyAyNC44OTEgMjIuMDQxIDIzLjc1NSAyMS4zMjQgMjMuNDU1IDIxLjEzNCAyMy4xMzggMjEuMjk5IDE2LjMxMiAyNC44MzcgMTYuMDA5IDI0Ljk5NCAxNS45OCAyNS4zMzYgMTUuODU2IDI2Ljc2MiAxNS43NTYgMjcuODkzIDE1Ljc1OCAyNy44OTMgMTYuNzY2IDI3LjM2NSIvPjxwb2x5Z29uIGNsYXNzPSJjbHMtMiIgcG9pbnRzPSIzMS4zMzkgMzMuMTc1IDMwLjMzMiAzMy43IDMxLjMxOSAzNC4yNjUgMzIuNTYyIDM0Ljk3NiAzMi44NTggMzUuMTQ2IDMzLjE2MSAzNC45ODYgMzkuOTU2IDMxLjM5MyA0MC4yNzEgMzEuMjI3IDQwLjI4NSAzMC44NzEgNDAuMzQzIDI5LjUzIDQwLjM5MSAyOC40NTMgMzkuNDM1IDI4Ljk1MiAzMS4zMzkgMzMuMTc1Ii8+PHBvbHlnb24gY2xhc3M9ImNscy0yIiBwb2ludHM9IjI2LjgxIDMxLjYzOCAyNi44MTEgMzEuNjM3IDI2LjgxIDMxLjYzNiAyNi44MSAzMS42MzgiLz48cG9seWdvbiBjbGFzcz0iY2xzLTIiIHBvaW50cz0iMzkuNTk5IDI0Ljg3NCAyNy44MDggMzEuMTA5IDI2LjgxMSAzMS42MzcgMjcuNzkgMzIuMTk3IDI4LjkwNSAzMi44NCAyOS4xOTkgMzMuMDA3IDI5LjQ5OSAzMi44NTIgNDAuMTE5IDI3LjM1NCA0MC40MzggMjcuMTg5IDQwLjQ1NSAyNi44MyA0MC40NjcgMjYuNTI0IDQwLjUxMSAyNS40NDggNDAuNTU3IDI0LjM2OCAzOS41OTkgMjQuODc0Ii8+PHBvbHlnb24gY2xhc3M9ImNscy0zIiBwb2ludHM9IjIyLjExIDMwLjA4OCAyMS44MTMgMjkuOTE2IDIxLjUxMSAzMC4wNzMgMjAuMjQxIDMwLjczMiAxOS4yMzEgMzEuMjU2IDIwLjIxNiAzMS44MjQgMjguMTI3IDM2LjM3MSAyOS4wNjIgMzYuOTA5IDI5LjA2MiAzNS44MzIgMjkuMDYyIDM0LjEzMyAyOC43NTMgMzMuOTUyIDIyLjExIDMwLjA4OCIvPjxwb2x5Z29uIGNsYXNzPSJjbHMtMyIgcG9pbnRzPSIxOC4zNjEgMzIuMDcxIDE4LjA2NyAzMS45MDMgMTcuNzY2IDMyLjA1OCAxNi42MjUgMzIuNjUzIDE1LjYyNCAzMy4xNzUgMTUuNjIyIDMzLjE3OSAxNi41OTggMzMuNzQ3IDI4LjEyNyA0MC40NTcgMjkuMDYyIDQxIDI5LjA2MiAzOC4xNzggMjguNzQ5IDM3Ljk5OSAxOC4zNjEgMzIuMDcxIi8+PHBvbHlnb24gY2xhc3M9ImNscy0zIiBwb2ludHM9IjI4LjA3OCAxOS43MTQgMjcuMTI1IDE5LjA5MyAyNy4xMTQgMTkuMDkzIDI3LjExNCAyMC4yMyAyNy4xMDIgMjEuNjYyIDI3LjEwMiAyMi4wMDQgMjcuMzkgMjIuMTg4IDMzLjg0NyAyNi4zNjQgMzQuMTQ1IDI2LjU1NyAzNC40NjQgMjYuMzk1IDM1LjY2MiAyNS43ODQgMzYuNjIzIDI1LjI5NyAzNS43MjIgMjQuNzA4IDI4LjA3OCAxOS43MTQiLz48cG9seWdvbiBjbGFzcz0iY2xzLTMiIHBvaW50cz0iMzkuMzU3IDIyLjg1NCAyOC4xNDYgMTUuNjIgMjcuMTk5IDE1LjAwOCAyNy4xODUgMTUgMjcuMTg1IDE2LjEyOSAyNy4xNzIgMTcuNDE2IDI3LjE3MiAxNy43NTQgMjcuNDU2IDE3Ljk0IDM3LjQ0NiAyNC41MTEgMzcuNzQ5IDI0LjcxOSAzOC4wNyAyNC41NTUgMzguMzQzIDI0LjQxNiAzOS4zMDEgMjMuOTI5IDQwLjI2NCAyMy40NCAzOS4zNTcgMjIuODU0Ii8+PC9zdmc+" vertex="1" parent="1">
          <mxGeometry x="310" y="500" width="50" height="50" as="geometry" />
        </mxCell>
        <mxCell id="_p2IHeMZrTxMRXlRe7gt-2" value="Hana Cloud" style="shape=image;verticalLabelPosition=bottom;verticalAlign=top;imageAspect=0;aspect=fixed;image=data:image/svg+xml,PHN2ZyB4bWxucz0iaHR0cDovL3d3dy53My5vcmcvMjAwMC9zdmciIGlkPSJtb25nb0RCIiB2aWV3Qm94PSI0LjAwMDAwMTkwNzM0ODYzMyAzLjk5OTk5OTA0NjMyNTY4MzYgNDggNDcuOTk5OTk2MTg1MzAyNzM0IiB3aWR0aD0iNDgiIGhlaWdodD0iNDcuOTk5OTk2MTg1MzAyNzM0Ij48ZGVmcz48c3R5bGU+LmNscy0xe2ZpbGw6IzA3NGQ5Mjt9LmNscy0ye2ZpbGw6IzA1M2I3MDt9LmNscy0ze2ZpbGw6IzBhNmVkMTt9PC9zdHlsZT48L2RlZnM+PHRpdGxlPm1vbmdvREJfY2lyY2xlPC90aXRsZT48cGF0aCBjbGFzcz0iY2xzLTEiIGQ9Ik0yOCw2QTIyLDIyLDAsMSwxLDYsMjgsMjIuMDI1LDIyLjAyNSwwLDAsMSwyOCw2bTAtMkEyNCwyNCwwLDEsMCw1MiwyOCwyNCwyNCwwLDAsMCwyOCw0WiIvPjxwYXRoIGNsYXNzPSJjbHMtMiIgZD0iTTM3LjY4NCwxNi44YTYuMDMzLDYuMDMzLDAsMCwwLTIuMTc2LTEuNTE3QTE5LjIxNCwxOS4yMTQsMCwwLDAsMjgsMTRhMTkuMjE0LDE5LjIxNCwwLDAsMC03LjUwOCwxLjI4M0E2LjAzMyw2LjAzMywwLDAsMCwxOC4zMTYsMTYuOGEzLjAzOCwzLjAzOCwwLDAsMC0uODE2LDIuMDQyVjM3LjFhMi45MzYsMi45MzYsMCwwLDAsLjgxNiwyLjA0Miw2LjAyLDYuMDIsMCwwLDAsMi4xNzYsMS41MTZBMTguMTEsMTguMTEsMCwwLDAsMjgsNDJhMTkuMjE0LDE5LjIxNCwwLDAsMCw3LjUwOC0xLjI4M0E2LjAzMyw2LjAzMywwLDAsMCwzNy42ODQsMzkuMmEzLjE1MiwzLjE1MiwwLDAsMCwuODE2LTIuMDQyVjE4Ljg0MkEzLjAzOCwzLjAzOCwwLDAsMCwzNy42ODQsMTYuOFptLS45MjUsMjAuMzU4YzAsLjctLjgxNiwxLjQtMi4yMzEsMS45MjVBMTguNzcsMTguNzcsMCwwLDEsMjgsNDAuMDc1YTE4Ljc3LDE4Ljc3LDAsMCwxLTYuNTI4LS45OTJDMjAuMTExLDM4LjU1OCwxOS4zLDM3LjgsMTkuMywzNy4xNThWMzMuOTVhMTAsMTAsMCwwLDAsMy4yMSwxLjQsMjIuMDkzLDIyLjA5MywwLDAsMCw1LjUuNjQyLDIyLjg3LDIyLjg3LDAsMCwwLDUuNTQ5LS42NDIsOS44MTksOS44MTksMCwwLDAsMy4yNjQtMS40djMuMjA4Wm0wLTYuMTI1YzAsLjctLjgxNiwxLjQtMi4yMzEsMS45MjVBMTguNzcsMTguNzcsMCwwLDEsMjgsMzMuOTVhMTguNzcsMTguNzcsMCwwLDEtNi41MjgtLjk5MmMtMS4zNjEtLjUyNS0yLjE3Ny0xLjI4My0yLjE3Ny0xLjkyNXYtMy4xNWE5Ljk4Miw5Ljk4MiwwLDAsMCwzLjIxLDEuMzQyLDIyLjI2MywyMi4yNjMsMCwwLDAsNS41LjU4M2MzLjgwOCwwLDYuOTY0LS43LDguNzU5LTEuOTgzWk0zNC41MjgsMjAuODI1QTE4Ljc3LDE4Ljc3LDAsMCwxLDI4LDIxLjgxN2ExOC43NywxOC43NywwLDAsMS02LjUyOC0uOTkyYy0xLjM2MS0uNTgzLTIuMTc3LTEuMjgzLTIuMTc3LTEuOTgzLDAtMS4yMjUsMy4wNDctMi45MTcsOC43LTIuOTE3LDUuNzEyLDAsOC43NTksMS42OTIsOC43NTksMi45MTdDMzYuNzU5LDE5LjU0MiwzNS45NDMsMjAuMjQyLDM0LjUyOCwyMC44MjVaIi8+PHBhdGggY2xhc3M9ImNscy0zIiBkPSJNMzYuNzMyLDE4Ljg0MmMwLC43LS44MTYsMS40LTIuMjMxLDEuOTgzYTE4Ljc3LDE4Ljc3LDAsMCwxLTYuNTI4Ljk5MiwxOC43NzYsMTguNzc2LDAsMCwxLTYuNTI5LS45OTJjLTEuMzYtLjU4My0yLjE3Ni0xLjI4My0yLjE3Ni0xLjk4M3Y5LjA0MWE5Ljk4Miw5Ljk4MiwwLDAsMCwzLjIxLDEuMzQyLDIyLjI1NywyMi4yNTcsMCwwLDAsNS40OTUuNTgzYzMuODA4LDAsNi45NjQtLjcsOC43NTktMS45ODNaIi8+PC9zdmc+" vertex="1" parent="1">
          <mxGeometry x="580" y="460" width="50" height="50" as="geometry" />
        </mxCell>
        <mxCell id="_p2IHeMZrTxMRXlRe7gt-3" value="Alert Notification" style="shape=image;verticalLabelPosition=bottom;verticalAlign=top;imageAspect=0;aspect=fixed;image=data:image/svg+xml,PHN2ZyB4bWxucz0iaHR0cDovL3d3dy53My5vcmcvMjAwMC9zdmciIGlkPSJhbGVydC1ub3RpZmljYXRpb24iIHZpZXdCb3g9IjQuMDAwMDAxOTA3MzQ4NjMzIDMuOTk5OTk5MDQ2MzI1NjgzNiA0OCA0Ny45OTk5OTYxODUzMDI3MzQiIHdpZHRoPSI0OCIgaGVpZ2h0PSI0Ny45OTk5OTYxODUzMDI3MzQiPjxkZWZzPjxzdHlsZT4uY2xzLTF7ZmlsbDojMDc0ZDkyO30uY2xzLTJ7ZmlsbDojMDUzYjcwO30uY2xzLTN7ZmlsbDojMGE2ZWQxO308L3N0eWxlPjwvZGVmcz48dGl0bGU+YWxlcnQtbm90aWZpY2F0aW9uX2NpcmNsZTwvdGl0bGU+PHBhdGggY2xhc3M9ImNscy0xIiBkPSJNMjgsNkEyMiwyMiwwLDEsMSw2LDI4LDIyLjAyNSwyMi4wMjUsMCwwLDEsMjgsNm0wLTJBMjQsMjQsMCwxLDAsNTIsMjgsMjQsMjQsMCwwLDAsMjgsNFoiLz48cGF0aCBjbGFzcz0iY2xzLTIiIGQ9Ik0zNC4yMTMsMjguOTExbC0xLjQ4NS44MTlhOC4xMTksOC4xMTksMCwxLDEtNy45NzMtNi42MThsLjAxOSwwVjIxLjQ4N2gtLjAxOWE5LjgsOS44LDAsMSwwLDkuNDU4LDcuNDI1WiIvPjxwYXRoIGNsYXNzPSJjbHMtMiIgZD0iTTIzLjcyNSwzNi4yNTFsLjEwOC0uNS4wNzEtLjIxNCwxLjY3OS0xLjY0NFYzMi42MDZsLS42NzktLjU3Mi0yLjMyMS0uMjUtLjQyOS0uMjg2LjAzNi0uNS0uMzkzLS40MjkuNDY0LS41LjMyMi4xNDNMMjIuNjksMzBoLjc1bC4xNDMuNjA3aC4yODVMMjMuNzI1LDMwbC45MjktLjQ2NS0uMTc5LS4zNTcuNDY1LS4wMzYtLjIxNS0uMTc5LjMyMi0uMzIxLS4yODYtLjQ2NXYtLjI4NmwtLjY0My40MjktLjE3OC4yODYtLjMyMi0uMDM2di0uMzkzbC41NzItLjYwNy0uMjE1LS41MzctMS0uMDcxLS41NzEuNTcyLS43MTQtLjE0My41NzEtMS4yODdhLjE2NS4xNjUsMCwwLDEtLjEwNy0uMTc4LjE0MS4xNDEsMCwwLDEsLjAzNi0uMTA4LDEuMywxLjMsMCwwLDEtLjY2MS0uMjMyLDEuMzM5LDEuMzM5LDAsMCwwLS43LS4yMzIsMS4yOSwxLjI5LDAsMCwwLS42MDguMjUsNi43NTQsNi43NTQsMCwwLDAtLjguNjA3LDUuNzU5LDUuNzU5LDAsMCwwLS43MTQuNzMzLDEuMDg2LDEuMDg2LDAsMCwwLS4zLjU5bC4xNDMuMzkzLjY0My4zOTMuMjE0LjcxNS0uMTA3LjkyOS41MzYsMS4wNzIuMjQ5LS4xMDctLjM5Mi0uNzE1LjI1LjI4Ni4yNS4xNzlhMi4wOTEsMi4wOTEsMCwwLDAsMS41MzUuNjQzbC4zOTMuNS0uODkzLDEuMTA4LDEsLjg5M3EuMTA4LjY0NC4xNjEsMS4xNzlhNS43MjgsNS43MjgsMCwwLDAsLjE2MS45M2wuMzkzLjg5My4zMjEuNzE1YS4yODguMjg4LDAsMCwxLC4xNzktLjAzNmwuMTQzLS4xNDNhLjE3LjE3LDAsMCwwLS4wMTgtLjA3MS4xNDguMTQ4LDAsMCwxLS4wMTgtLjA3MmwuMDM2LS40MjlaIi8+PHBhdGggY2xhc3M9ImNscy0yIiBkPSJNMjUuMDQ3LDI2LjQyM2EuNS41LDAsMCwxLC4zNTcuMTA3LjY0Mi42NDIsMCwwLDEsLjM5My0uMTA3YzAtLjAyNC4wNDEuMDcxLjEyNS4yODZzLjIuMzIxLjMzOS4zMjFsLjMyMS0uMjE0LjI4Ni0uNDY1LjIzMi0uMzcxYTEuNTY2LDEuNTY2LDAsMCwxLS43OC0uOTA5Yy0uMS4wNjEtLjIwNi4xMjItLjMuMTgzYTMuMSwzLjEsMCwwLDAtLjYxOC41MjYsNS4wMzcsNS4wMzcsMCwwLDAtLjU3MS42NzkuMjU1LjI1NSwwLDAsMCwuMTA3LS4wMThBLjIyOS4yMjksMCwwLDEsMjUuMDQ3LDI2LjQyM1oiLz48cGF0aCBjbGFzcz0iY2xzLTIiIGQ9Ik0yOS43NjEsMzIuMzJsLjUuODIyLjA3Mi4zMjJ2LjI4NmE2LjkzNyw2LjkzNywwLDAsMS0uMTA4LDEuMjE1LDUuODQ3LDUuODQ3LDAsMCwwLS4xMDcuOTI5YzAsLjE2Ni4wMzYuMjUuMTA3LjI1cS41LTEuMDM2LDEuMDM2LTIuMTYyYTUuNjI5LDUuNjI5LDAsMCwwLC41MzYtMi40NDgsOC41ODIsOC41ODIsMCwwLDAtLjA3Mi0uOTgzLjg2Ni44NjYsMCwwLDAtLjUtLjc2OWMtLjExOS0uMDIzLS4yNDQtLjA0OC0uMzc1LS4wNzFhMi4wODMsMi4wODMsMCwwLDAtLjM3NS0uMDM2LDEuODczLDEuODczLDAsMCwwLS4yNjguMDE4LDEuNjI0LDEuNjI0LDAsMCwxLS4yMzIuMDE4LjI0LjI0LDAsMCwxLS4xNzgtLjA3MiwzLjQ2NiwzLjQ2NiwwLDAsMS0uODc1LjNjLS4yMjcuMDM2LS40MzUuMDc3LS42MjUuMTI1bC0uMjUsMS4xOEwyOC40LDMyWiIvPjxwYXRoIGNsYXNzPSJjbHMtMyIgZD0iTTQwLjAzLDE1Ljk2NkEzLjEyNiwzLjEyNiwwLDAsMCwzNy43NDUsMTVIMjkuNjJhMy4zLDMuMywwLDAsMC0zLjI1LDMuMjUydjQuODc5YTMuMSwzLjEsMCwwLDAsLjk2NCwyLjMxMiwzLjE2MywzLjE2MywwLDAsMCwyLjI4Ni45NHYxLjQyM2EuOTE2LjkxNiwwLDAsMCwuMzMuNzM3LDEuMTEsMS4xMSwwLDAsMCwuNzM2LjI4LDEuMDMsMS4wMywwLDAsMCwuNjYtLjJsMy45NjEtMi4xODUsMi40MzgtLjA1MWEzLjE2OCwzLjE2OCwwLDAsMCwyLjI4NS0uOTRBMy4xLDMuMSwwLDAsMCw0MSwyMy4xMzFWMTguMjUyQTMuMTMzLDMuMTMzLDAsMCwwLDQwLjAzLDE1Ljk2NlptLS42Niw3LjE2NWExLjU2NSwxLjU2NSwwLDAsMS0xLjYyNSwxLjYyNmwtMy4yNS4wNTEtMy4yNSwxLjU3NVYyNC43NTdIMjkuNjJhMS42LDEuNiwwLDAsMS0xLjE0My0uNDU3QTEuNTM4LDEuNTM4LDAsMCwxLDI4LDIzLjEzMVYxOC4yNTJhMS42NDgsMS42NDgsMCwwLDEsMS42MjUtMS42MjZoOC4xMjVhMS41NDQsMS41NDQsMCwwLDEsMS4xNjguNDgzLDEuNjEyLDEuNjEyLDAsMCwxLC40NTcsMS4xNDNaIi8+PHBhdGggY2xhc3M9ImNscy0zIiBkPSJNMzMuNjgyLDIyLjNhLjc0OC43NDgsMCwwLDAtLjU4Ny4yNDguODE3LjgxNywwLDAsMC0uMjIyLjU2Mi44MzYuODM2LDAsMCwwLC4yMjIuNi44NTEuODUxLDAsMCwwLDEuMTc0LDAsLjg0Ljg0LDAsMCwwLC4yMjItLjYuODIyLjgyMiwwLDAsMC0uMjIyLS41NjJBLjc1MS43NTEsMCwwLDAsMzMuNjgyLDIyLjNaIi8+PHBhdGggY2xhc3M9ImNscy0zIiBkPSJNMzMuNjgyLDE3LjQzOWEuNzcuNzcsMCwwLDAtLjU4Ny4yMzUuODM4LjgzOCwwLDAsMC0uMjIyLjZsLjM5MSwyLjg0OGMuMDM1LjIwOS4wODcuMzM1LjE1Ny4zNzhhLjQ3OS40NzksMCwwLDAsLjI2MS4wNjYuNDA3LjQwNywwLDAsMCwuMjc0LS4wNzkuNjY2LjY2NiwwLDAsMCwuMTQ0LS4zNjVsLjM5MS0yLjg0OGEuODQyLjg0MiwwLDAsMC0uMjIyLS42QS43NzMuNzczLDAsMCwwLDMzLjY4MiwxNy40MzlaIi8+PC9zdmc+" vertex="1" parent="1">
          <mxGeometry x="250" y="340" width="48" height="48" as="geometry" />
        </mxCell>
        <mxCell id="_p2IHeMZrTxMRXlRe7gt-6" value="Object Store" style="shape=image;verticalLabelPosition=bottom;verticalAlign=top;imageAspect=0;aspect=fixed;image=data:image/svg+xml,PHN2ZyB4bWxucz0iaHR0cDovL3d3dy53My5vcmcvMjAwMC9zdmciIGlkPSJkb2N1bWVudC1zZXJ2aWNlIiB2aWV3Qm94PSI0LjAwMDAwMTkwNzM0ODYzMyAzLjk5OTk5OTA0NjMyNTY4MzYgNDggNDcuOTk5OTk2MTg1MzAyNzM0IiB3aWR0aD0iNDgiIGhlaWdodD0iNDcuOTk5OTk2MTg1MzAyNzM0Ij48ZGVmcz48c3R5bGU+LmNscy0xe2ZpbGw6IzA3NGQ5Mjt9LmNscy0ye2ZpbGw6IzBhNmVkMTt9LmNscy0ze2ZpbGw6IzA1M2I3MDt9PC9zdHlsZT48L2RlZnM+PHRpdGxlPmRvY3VtZW50LXNlcnZpY2VfY2lyY2xlPC90aXRsZT48cGF0aCBjbGFzcz0iY2xzLTEiIGQ9Ik0yOCw2QTIyLDIyLDAsMSwxLDYsMjgsMjIuMDI1LDIyLjAyNSwwLDAsMSwyOCw2bTAtMkEyNCwyNCwwLDEsMCw1MiwyOCwyNCwyNCwwLDAsMCwyOCw0WiIvPjxwYXRoIGNsYXNzPSJjbHMtMiIgZD0iTTQwLjI1LDIzLjYyNWgtLjExN2wtMy4zODMtN0gxOS4yNWwtMy4zODMsN0gxNS43NUExLjcxOCwxLjcxOCwwLDAsMCwxNCwyNS4zNzV2MTIuMjVhMS43MTgsMS43MTgsMCwwLDAsMS43NSwxLjc1aDI0LjVBMS43MTgsMS43MTgsMCwwLDAsNDIsMzcuNjI1VjI1LjM3NUExLjcxOCwxLjcxOCwwLDAsMCw0MC4yNSwyMy42MjVabS0xLjg2Ny0uMDU4SDE3LjU1OGwyLjY4NC01LjZIMzUuNzU4TTE1Ljc1LDM3LjYyNVYyNS4zNzVoMjQuNXYxMi4yNVoiLz48cG9seWdvbiBjbGFzcz0iY2xzLTMiIHBvaW50cz0iMzEuNSAzNC4xMjUgMjQuNSAzNC4xMjUgMjQuNSAzMy4yNSAyMi43NSAzMy4yNSAyMi43NSAzNC4xMjUgMjIuNzUgMzUuODc1IDMzLjI1IDM1Ljg3NSAzMy4yNSAzNC4xMjUgMzMuMjUgMzMuMjUgMzEuNSAzMy4yNSAzMS41IDM0LjEyNSIvPjxyZWN0IGNsYXNzPSJjbHMtMyIgeD0iMTkuODkyIiB5PSIyMS4zNSIgd2lkdGg9IjE2LjIxNyIgaGVpZ2h0PSIwLjg3NSIvPjxyZWN0IGNsYXNzPSJjbHMtMyIgeD0iMjEiIHk9IjE5LjE5MiIgd2lkdGg9IjE0IiBoZWlnaHQ9IjAuODc1Ii8+PC9zdmc+" vertex="1" parent="1">
          <mxGeometry x="490" y="340" width="48" height="48" as="geometry" />
        </mxCell>
        <mxCell id="_p2IHeMZrTxMRXlRe7gt-7" value="Identity Authentication" style="shape=image;verticalLabelPosition=bottom;verticalAlign=top;imageAspect=0;aspect=fixed;image=data:image/svg+xml,PHN2ZyB4bWxucz0iaHR0cDovL3d3dy53My5vcmcvMjAwMC9zdmciIGlkPSJzYXAtY2xvdWQtaWRlbnRpdHktc2VydmljZSIgdmlld0JveD0iNC4wMDAwMDE5MDczNDg2MzMgNC4wMTc5OTk2NDkwNDc4NTIgNDggNDgiIHdpZHRoPSI0OCIgaGVpZ2h0PSI0OCI+PGRlZnM+PHN0eWxlPi5jbHMtMXtmaWxsOiMwYTZlZDE7fS5jbHMtMntmaWxsOiMwNTNiNzA7fS5jbHMtM3tmaWxsOiMwNzRkOTI7fTwvc3R5bGU+PC9kZWZzPjx0aXRsZT5zYXAtY2xvdWQtaWRlbnRpdHktc2VydmljZV9jaXJjbGU8L3RpdGxlPjxwYXRoIGNsYXNzPSJjbHMtMSIgZD0iTTI2LjkyMiwyOS40MDlhMi4yMDksMi4yMDksMCwwLDAtLjctLjQ3LDIuMTU3LDIuMTU3LDAsMCwwLS44NDYtLjE3MUgyMy4xODhhMi4xMzcsMi4xMzcsMCwwLDAtLjg1NS4xNzEsMi4yMjYsMi4yMjYsMCwwLDAtLjY5Mi40NywyLjE5MywyLjE5MywwLDAsMC0uNDcuNywyLjEzOSwyLjEzOSwwLDAsMC0uMTcxLjg0NnYyLjE4N2g2LjU2MlYzMC45NTZhMi4xNTYsMi4xNTYsMCwwLDAtLjE3LS44NDZBMi4yMDksMi4yMDksMCwwLDAsMjYuOTIyLDI5LjQwOVoiLz48cGF0aCBjbGFzcz0iY2xzLTEiIGQ9Ik0yNS44MjgsMjguMTI4YTIuMjMxLDIuMjMxLDAsMCwwLC40Ny0uNjkzLDIuMTE1LDIuMTE1LDAsMCwwLC4xNzEtLjg1NCwyLjEzOSwyLjEzOSwwLDAsMC0uMTcxLS44NDYsMi4xOCwyLjE4LDAsMCwwLTEuMTcxLTEuMTcxLDIuMTU3LDIuMTU3LDAsMCwwLS44NDYtLjE3MSwyLjEzNSwyLjEzNSwwLDAsMC0uODU0LjE3MSwyLjIyNiwyLjIyNiwwLDAsMC0uNjkyLjQ3LDIuMTc2LDIuMTc2LDAsMCwwLS40Ny43LDIuMTM5LDIuMTM5LDAsMCwwLS4xNzEuODQ2LDIuMTE1LDIuMTE1LDAsMCwwLC4xNzEuODU0LDIuMiwyLjIsMCwwLDAsLjQ3LjY5MywyLjIyNiwyLjIyNiwwLDAsMCwuNjkyLjQ3LDIuMjEsMi4yMSwwLDAsMCwxLjcsMEEyLjIwOSwyLjIwOSwwLDAsMCwyNS44MjgsMjguMTI4WiIvPjxwYXRoIGNsYXNzPSJjbHMtMSIgZD0iTTM0LjgyOSwzMC4xMWEyLjE4LDIuMTgsMCwwLDAtMS4xNzEtMS4xNzEsMi4xNSwyLjE1LDAsMCwwLS44NDYtLjE3MUgzMC42MjVhMi4xMzIsMi4xMzIsMCwwLDAtLjg1NC4xNzEsMi4yLDIuMiwwLDAsMC0xLjE2MywxLjE3MSwyLjEzOCwyLjEzOCwwLDAsMC0uMTcuODQ2djIuMTg3SDM1VjMwLjk1NkEyLjEzOSwyLjEzOSwwLDAsMCwzNC44MjksMzAuMTFaIi8+PHBhdGggY2xhc3M9ImNscy0xIiBkPSJNMzMuMjY1LDI4LjEyOGEyLjIxNCwyLjIxNCwwLDAsMCwuNDctLjY5MywyLjExNSwyLjExNSwwLDAsMCwuMTcxLS44NTQsMi4xMzksMi4xMzksMCwwLDAtLjE3MS0uODQ2LDIuMTgzLDIuMTgzLDAsMCwwLTEuMTctMS4xNzEsMi4yLDIuMiwwLDAsMC0xLjcsMEEyLjIsMi4yLDAsMCwwLDI5LjcsMjUuNzM1YTIuMTM5LDIuMTM5LDAsMCwwLS4xNzEuODQ2LDIuMTE1LDIuMTE1LDAsMCwwLC4xNzEuODU0QTIuMjI2LDIuMjI2LDAsMCwwLDMwLjg2NCwyOC42YTIuMjEyLDIuMjEyLDAsMCwwLDEuNywwQTIuMiwyLjIsMCwwLDAsMzMuMjY1LDI4LjEyOFoiLz48cGF0aCBjbGFzcz0iY2xzLTIiIGQ9Ik0zOC40MDcsMjQuOTU1YTQuOTUxLDQuOTUxLDAsMCwwLTcuNDU3LTMuMzMzLDYuNzQzLDYuNzQzLDAsMCwwLTYuMjExLTQuMjI5Yy02Ljg2NCwwLTYuNiw3LjU3Ny02LjYsNy41NzdBNS45ODMsNS45ODMsMCwwLDAsMjAsMzYuNjQzSDM1Ljg3NWE2LjExNiw2LjExNiwwLDAsMCwyLjUzMi0xMS42ODhabS0yLjUzMiw5LjkzOEgyMGE0LjIzMyw0LjIzMywwLDAsMS0xLjMxNy04LjI2MWwxLjMzLS40NDgtLjEzNS0xLjM5NGE2LjEyNiw2LjEyNiwwLDAsMSwxLjE3Mi00LjA5LDUuMSw1LjEsMCwwLDEsMy43MjItMS41NTYsNS4zNzIsNS4zNzIsMCwwLDEsNC42NjMsMy4xMTVsLjY4NywxLjY3NSwxLjQxMy0uNzY5YTQuNDMyLDQuNDMyLDAsMCwxLDEuOTc4LS41MjIsMy4yMzUsMy4yMzUsMCwwLDEsMy4xNzUsMi42MzZsLjE2OC44OTEuODI1LjM3N2E0LjM2Niw0LjM2NiwwLDAsMS0xLjgsOC4zNDZaIi8+PHBhdGggY2xhc3M9ImNscy0zIiBkPSJNMjgsNi4wMThhMjIsMjIsMCwxLDEtMjIsMjIsMjIuMDI1LDIyLjAyNSwwLDAsMSwyMi0yMm0wLTJhMjQsMjQsMCwxLDAsMjQsMjQsMjQsMjQsMCwwLDAtMjQtMjRaIi8+PC9zdmc+" vertex="1" parent="1">
          <mxGeometry x="380" y="340" width="48" height="48" as="geometry" />
        </mxCell>
        <mxCell id="_p2IHeMZrTxMRXlRe7gt-8" value="Integration Suite" style="shape=image;verticalLabelPosition=bottom;verticalAlign=top;imageAspect=0;aspect=fixed;image=data:image/svg+xml,PHN2ZyB4bWxucz0iaHR0cDovL3d3dy53My5vcmcvMjAwMC9zdmciIGlkPSJpbnRlZ3JhdGlvbi1zdWl0ZSIgdmlld0JveD0iNC4wMDAwMDE5MDczNDg2MzMgMy45OTk5OTkwNDYzMjU2ODM2IDQ4IDQ3Ljk5OTk5NjE4NTMwMjczNCIgd2lkdGg9IjQ4IiBoZWlnaHQ9IjQ3Ljk5OTk5NjE4NTMwMjczNCI+PGRlZnM+PHN0eWxlPi5jbHMtMXtmaWxsOiMwNzRkOTI7fS5jbHMtMntmaWxsOiMwYTZlY2Y7fS5jbHMtM3tmaWxsOiMwMDNiNzQ7fTwvc3R5bGU+PC9kZWZzPjxwYXRoIGNsYXNzPSJjbHMtMSIgZD0iTTI4LDZBMjIsMjIsMCwxLDEsNiwyOCwyMi4wMjUsMjIuMDI1LDAsMCwxLDI4LDZtMC0yQTI0LDI0LDAsMSwwLDUyLDI4LDI0LDI0LDAsMCwwLDI4LDRaIi8+PHBhdGggY2xhc3M9ImNscy0yIiBkPSJNMjEuMzU0LDI5LjM2NGgxLjQ3NWExLjQ3OCwxLjQ3OCwwLDAsMCwxLjQ3Ny0xLjQ3M2wxLjQ3OC41NzR2LjlhMS40NDUsMS40NDUsMCwwLDAsLjI3NS44MTFsLTEuNjQxLDIuMTY3Yy0uMDM5LDAtLjA3Mi0uMDIzLS4xMTItLjAyM0gyMi44MzFBMS40NzksMS40NzksMCwwLDAsMjEuMzUyLDMzLjh2MS40NzVhMS40NzksMS40NzksMCwwLDAsMS40NzksMS40NzhoMS40NzVhMS40NzgsMS40NzgsMCwwLDAsMS40NzgtMS40NzhWMzMuOGExLjQ0OCwxLjQ0OCwwLDAsMC0uNjQzLTEuMTg3bDEuNDY4LTEuOTM4YTEuNDQzLDEuNDQzLDAsMCwwLC42NTQuMTY5aDEuNDc1YTEuNDM1LDEuNDM1LDAsMCwwLC43MzMtLjIyM2wuOTY4Ljk2OGExLjQzNSwxLjQzNSwwLDAsMC0uMjIzLjczM3YxLjQ3NWExLjQ3OSwxLjQ3OSwwLDAsMCwxLjQ3OCwxLjQ3OWgxLjQ3NWExLjQ3OSwxLjQ3OSwwLDAsMCwxLjQ3OS0xLjQ3OVYzMi4zMTlhMS40NzksMS40NzksMCwwLDAtMS40NzktMS40NzhIMzEuNjk0YTEuNDM1LDEuNDM1LDAsMCwwLS43MzMuMjIzbC0uOTY4LS45NjhhMS40MzUsMS40MzUsMCwwLDAsLjIyMy0uNzMzdi0xLjRsMS43LS44MjZhMS40NTcsMS40NTcsMCwwLDAsMS4yNjEuNzUzaDEuNDc1YTEuNDc4LDEuNDc4LDAsMCwwLDEuNDc4LTEuNDc4VjI0LjkzM2ExLjQ3OCwxLjQ3OCwwLDAsMC0xLjQ3OC0xLjQ3OEgzMy4xNzJhMS40NzgsMS40NzgsMCwwLDAtMS40NzksMS40Nzh2MS40NzVsMCwuMDA5LTEuNjU1LjgwNmExLjQ2NSwxLjQ2NSwwLDAsMC0xLjMtLjgxNGgtLjg4NGwtLjU4MS0xLjQ4YTEuNDc3LDEuNDc3LDAsMCwwLDEuNDY2LTEuNDc2VjIxLjk3OEExLjQ3OSwxLjQ3OSwwLDAsMCwyNy4yNiwyMC41SDI1Ljc4NWExLjQ3OCwxLjQ3OCwwLDAsMC0xLjQ3OCwxLjQ3OHYxLjQ3NWExLjQ3OSwxLjQ3OSwwLDAsMCwxLjQ3OCwxLjQ3OWguN2wuNTk0LDEuNTEyYTEuNDUyLDEuNDUyLDAsMCwwLTEuMjUsMS4yNDRMMjQuMzA3LDI3LjFWMjYuNDFhMS40NzgsMS40NzgsMCwwLDAtMS40NzgtMS40NzhIMjEuMzU0YTEuNDc5LDEuNDc5LDAsMCwwLTEuNDc5LDEuNDc4djEuNDc1QTEuNDc5LDEuNDc5LDAsMCwwLDIxLjM1NCwyOS4zNjRabTIuOTUyLDUuOTA5SDIyLjgzVjMzLjhsMS40NzYsMFptNy4zODgtMi45NTVoMS40NzdsMCwxLjQ3NkgzMS42OTNabTEuNDc4LTcuMzg2aDEuNDc2djEuNDc2SDMzLjE3MVptLTQuNDMzLDIuOTU1djEuNDc3SDI3LjI2MWwwLTEuNDc3Wm0tMi45NTQtNC40MzJWMjEuOTc3aDEuNDc2djEuNDc3Wm0tNC40MzEsMi45NTRIMjIuODN2MS40NzZIMjEuMzUyWiIvPjxwYXRoIGNsYXNzPSJjbHMtMiIgZD0iTTM3Ljc0NCwzMy41SDM2LjEyNXYxLjYyNWgxLjYxOWwuMDA2LjAwNi0uMDA2LDMuMjQ0TDE4LjI1LDM4LjM2M2wuMDA2LTMuMjQ0LDEuNjE5LjAwNlYzMy41bC0xLjYxOS0uMDA2YTEuNjMxLDEuNjMxLDAsMCwwLTEuNjMxLDEuNjMxdjMuMjM4YTEuNjMxLDEuNjMxLDAsMCwwLDEuNjMxLDEuNjMxTDM3Ljc0NCw0MGExLjYzMSwxLjYzMSwwLDAsMCwxLjYzMS0xLjYzMVYzNS4xMzFBMS42MzEsMS42MzEsMCwwLDAsMzcuNzQ0LDMzLjVaIi8+PGNpcmNsZSBjbGFzcz0iY2xzLTIiIGN4PSIzMi44NzUiIGN5PSIzNi43NSIgcj0iMC44MTMiLz48Y2lyY2xlIGNsYXNzPSJjbHMtMiIgY3g9IjM1LjMxMyIgY3k9IjM2Ljc1IiByPSIwLjgxMyIvPjxwYXRoIGNsYXNzPSJjbHMtMyIgZD0iTTM3LjY2MywyMS4wMjFhNC42LDQuNiwwLDAsMC02LjkyNC0zLjA5NEE1Ljk2OCw1Ljk2OCwwLDAsMCwyNC45NzIsMTRjLTYuNTM0LDAtNi4xMzEsNy4wMzUtNi4xMzEsNy4wMzVhNS41MzgsNS41MzgsMCwwLDAsMS4wMzQsMTAuNzdWMzAuMThhMy45NDYsMy45NDYsMCwwLDEtMy4yNS0zLjg3Niw0LjAxMyw0LjAxMywwLDAsMSwyLjcyMy0zLjcyNWwxLjIzNC0uNDE2LS4xMjUtMS4yOTRhNC45NDYsNC45NDYsMCwwLDEsMS4wODktMy44QTQuMTkyLDQuMTkyLDAsMCwxLDI1LDE1LjYyNmE0Ljk4OCw0Ljk4OCwwLDAsMSw0LjMzLDIuODkybC42MzcsMS41NTUsMS4zMTMtLjcxNGE0LjExNSw0LjExNSwwLDAsMSwxLjgzNi0uNDg0LDMsMywwLDAsMSwyLjk0OCwyLjQ0N2wuMTU2LjgyOC43NjcuMzVhNC4wNTQsNC4wNTQsMCwwLDEtLjg2NCw3LjY2OHYxLjYyNWE1LjY2NCw1LjY2NCwwLDAsMCwxLjUzOC0xMC43NzJaIi8+PC9zdmc+" vertex="1" parent="1">
          <mxGeometry x="310" y="620" width="48" height="48" as="geometry" />
        </mxCell>
        <mxCell id="_p2IHeMZrTxMRXlRe7gt-10" value="Business Application Studio" style="shape=image;verticalLabelPosition=bottom;verticalAlign=top;imageAspect=0;aspect=fixed;image=data:image/svg+xml,PHN2ZyB4bWxucz0iaHR0cDovL3d3dy53My5vcmcvMjAwMC9zdmciIGlkPSJzYXAtYXBwbGljYXRpb24tc3R1ZGlvX2Zvcm1lcl9XZWJfSURFXyIgZGF0YS1uYW1lPSJzYXAtYXBwbGljYXRpb24tc3R1ZGlvIChmb3JtZXIgV2ViIElERSkiIHZpZXdCb3g9IjQuMDAwMDAxOTA3MzQ4NjMzIDMuOTk5OTk5MDQ2MzI1NjgzNiA0OCA0Ny45OTk5OTYxODUzMDI3MzQiIHdpZHRoPSI0OCIgaGVpZ2h0PSI0Ny45OTk5OTYxODUzMDI3MzQiPjxkZWZzPjxzdHlsZT4uY2xzLTF7ZmlsbDojMDc0ZDkyO30uY2xzLTJ7ZmlsbDojMDUzYjcwO30uY2xzLTN7ZmlsbDojMGE2ZWQxO308L3N0eWxlPjwvZGVmcz48dGl0bGU+c2FwLWFwcGxpY2F0aW9uLXN0dWRpb19jaXJjbGU8L3RpdGxlPjxwYXRoIGNsYXNzPSJjbHMtMSIgZD0iTTI4LDZBMjIsMjIsMCwxLDEsNiwyOCwyMi4wMjUsMjIuMDI1LDAsMCwxLDI4LDZtMC0yQTI0LDI0LDAsMSwwLDUyLDI4LDI0LDI0LDAsMCwwLDI4LDRaIi8+PHBvbHlnb24gY2xhc3M9ImNscy0yIiBwb2ludHM9IjI5LjI0OSAyNC44MTIgMjguMzM1IDI0LjIzMiAyNy40MjcgMjMuNjU2IDI3LjE2OCAyMy40OTIgMjYuODYzIDIzLjMwMSAyNi41NDYgMjMuNDY5IDE1Ljk3OCAyOS4wNjQgMTUuNjc4IDI5LjIyNCAxNS42NDkgMjkuNTYxIDE1LjUzOSAzMC44NDIgMTUuNDQzIDMxLjk2NyAxNi40NDQgMzEuNDQ3IDI4LjI4OSAyNS4zMDkgMjkuMjQ5IDI0LjgxMiIvPjxwb2x5Z29uIGNsYXNzPSJjbHMtMiIgcG9pbnRzPSIxNi43NjYgMjcuMzY1IDI0Ljg0NyAyMy4xMTkgMjUuODAyIDIyLjYxNyAyNC44OTEgMjIuMDQxIDIzLjc1NSAyMS4zMjQgMjMuNDU1IDIxLjEzNCAyMy4xMzggMjEuMjk5IDE2LjMxMiAyNC44MzcgMTYuMDA5IDI0Ljk5NCAxNS45OCAyNS4zMzYgMTUuODU2IDI2Ljc2MiAxNS43NTYgMjcuODkzIDE1Ljc1OCAyNy44OTMgMTYuNzY2IDI3LjM2NSIvPjxwb2x5Z29uIGNsYXNzPSJjbHMtMiIgcG9pbnRzPSIzMS4zMzkgMzMuMTc1IDMwLjMzMiAzMy43IDMxLjMxOSAzNC4yNjUgMzIuNTYyIDM0Ljk3NiAzMi44NTggMzUuMTQ2IDMzLjE2MSAzNC45ODYgMzkuOTU2IDMxLjM5MyA0MC4yNzEgMzEuMjI3IDQwLjI4NSAzMC44NzEgNDAuMzQzIDI5LjUzIDQwLjM5MSAyOC40NTMgMzkuNDM1IDI4Ljk1MiAzMS4zMzkgMzMuMTc1Ii8+PHBvbHlnb24gY2xhc3M9ImNscy0yIiBwb2ludHM9IjI2LjgxIDMxLjYzOCAyNi44MTEgMzEuNjM3IDI2LjgxIDMxLjYzNiAyNi44MSAzMS42MzgiLz48cG9seWdvbiBjbGFzcz0iY2xzLTIiIHBvaW50cz0iMzkuNTk5IDI0Ljg3NCAyNy44MDggMzEuMTA5IDI2LjgxMSAzMS42MzcgMjcuNzkgMzIuMTk3IDI4LjkwNSAzMi44NCAyOS4xOTkgMzMuMDA3IDI5LjQ5OSAzMi44NTIgNDAuMTE5IDI3LjM1NCA0MC40MzggMjcuMTg5IDQwLjQ1NSAyNi44MyA0MC40NjcgMjYuNTI0IDQwLjUxMSAyNS40NDggNDAuNTU3IDI0LjM2OCAzOS41OTkgMjQuODc0Ii8+PHBvbHlnb24gY2xhc3M9ImNscy0zIiBwb2ludHM9IjIyLjExIDMwLjA4OCAyMS44MTMgMjkuOTE2IDIxLjUxMSAzMC4wNzMgMjAuMjQxIDMwLjczMiAxOS4yMzEgMzEuMjU2IDIwLjIxNiAzMS44MjQgMjguMTI3IDM2LjM3MSAyOS4wNjIgMzYuOTA5IDI5LjA2MiAzNS44MzIgMjkuMDYyIDM0LjEzMyAyOC43NTMgMzMuOTUyIDIyLjExIDMwLjA4OCIvPjxwb2x5Z29uIGNsYXNzPSJjbHMtMyIgcG9pbnRzPSIxOC4zNjEgMzIuMDcxIDE4LjA2NyAzMS45MDMgMTcuNzY2IDMyLjA1OCAxNi42MjUgMzIuNjUzIDE1LjYyNCAzMy4xNzUgMTUuNjIyIDMzLjE3OSAxNi41OTggMzMuNzQ3IDI4LjEyNyA0MC40NTcgMjkuMDYyIDQxIDI5LjA2MiAzOC4xNzggMjguNzQ5IDM3Ljk5OSAxOC4zNjEgMzIuMDcxIi8+PHBvbHlnb24gY2xhc3M9ImNscy0zIiBwb2ludHM9IjI4LjA3OCAxOS43MTQgMjcuMTI1IDE5LjA5MyAyNy4xMTQgMTkuMDkzIDI3LjExNCAyMC4yMyAyNy4xMDIgMjEuNjYyIDI3LjEwMiAyMi4wMDQgMjcuMzkgMjIuMTg4IDMzLjg0NyAyNi4zNjQgMzQuMTQ1IDI2LjU1NyAzNC40NjQgMjYuMzk1IDM1LjY2MiAyNS43ODQgMzYuNjIzIDI1LjI5NyAzNS43MjIgMjQuNzA4IDI4LjA3OCAxOS43MTQiLz48cG9seWdvbiBjbGFzcz0iY2xzLTMiIHBvaW50cz0iMzkuMzU3IDIyLjg1NCAyOC4xNDYgMTUuNjIgMjcuMTk5IDE1LjAwOCAyNy4xODUgMTUgMjcuMTg1IDE2LjEyOSAyNy4xNzIgMTcuNDE2IDI3LjE3MiAxNy43NTQgMjcuNDU2IDE3Ljk0IDM3LjQ0NiAyNC41MTEgMzcuNzQ5IDI0LjcxOSAzOC4wNyAyNC41NTUgMzguMzQzIDI0LjQxNiAzOS4zMDEgMjMuOTI5IDQwLjI2NCAyMy40NCAzOS4zNTcgMjIuODU0Ii8+PC9zdmc+" vertex="1" parent="1">
          <mxGeometry x="70" y="480" width="48" height="48" as="geometry" />
        </mxCell>
        <mxCell id="_p2IHeMZrTxMRXlRe7gt-12" style="edgeStyle=orthogonalEdgeStyle;rounded=0;orthogonalLoop=1;jettySize=auto;html=1;exitX=0.5;exitY=0;exitDx=0;exitDy=0;entryX=0.5;entryY=1;entryDx=0;entryDy=0;" edge="1" parent="1" source="_p2IHeMZrTxMRXlRe7gt-11" target="_p2IHeMZrTxMRXlRe7gt-2">
          <mxGeometry relative="1" as="geometry" />
        </mxCell>
        <mxCell id="_p2IHeMZrTxMRXlRe7gt-13" style="edgeStyle=orthogonalEdgeStyle;rounded=0;orthogonalLoop=1;jettySize=auto;html=1;exitX=0;exitY=0.5;exitDx=0;exitDy=0;" edge="1" parent="1" source="_p2IHeMZrTxMRXlRe7gt-11" target="_p2IHeMZrTxMRXlRe7gt-8">
          <mxGeometry relative="1" as="geometry" />
        </mxCell>
        <mxCell id="_p2IHeMZrTxMRXlRe7gt-14" style="edgeStyle=orthogonalEdgeStyle;rounded=0;orthogonalLoop=1;jettySize=auto;html=1;exitX=0;exitY=0.25;exitDx=0;exitDy=0;startArrow=none;" edge="1" parent="1" source="_p2IHeMZrTxMRXlRe7gt-4" target="_p2IHeMZrTxMRXlRe7gt-1">
          <mxGeometry relative="1" as="geometry" />
        </mxCell>
        <mxCell id="_p2IHeMZrTxMRXlRe7gt-24" style="edgeStyle=orthogonalEdgeStyle;rounded=0;orthogonalLoop=1;jettySize=auto;html=1;exitX=0.25;exitY=0;exitDx=0;exitDy=0;entryX=0.556;entryY=1.167;entryDx=0;entryDy=0;entryPerimeter=0;" edge="1" parent="1" source="_p2IHeMZrTxMRXlRe7gt-11" target="_p2IHeMZrTxMRXlRe7gt-6">
          <mxGeometry relative="1" as="geometry" />
        </mxCell>
        <mxCell id="_p2IHeMZrTxMRXlRe7gt-11" value="API Suite" style="whiteSpace=wrap;html=1;aspect=fixed;" vertex="1" parent="1">
          <mxGeometry x="510" y="549" width="190" height="190" as="geometry" />
        </mxCell>
        <mxCell id="_p2IHeMZrTxMRXlRe7gt-15" value="PostgreSql" style="shape=image;verticalLabelPosition=bottom;verticalAlign=top;imageAspect=0;aspect=fixed;image=data:image/svg+xml,PHN2ZyB4bWxucz0iaHR0cDovL3d3dy53My5vcmcvMjAwMC9zdmciIGlkPSJhc2UiIHZpZXdCb3g9IjQuMDAwMDAxOTA3MzQ4NjMzIDMuOTk5OTk5MDQ2MzI1NjgzNiA0OCA0Ny45OTk5OTYxODUzMDI3MzQiIHdpZHRoPSI0OCIgaGVpZ2h0PSI0Ny45OTk5OTYxODUzMDI3MzQiPjxkZWZzPjxzdHlsZT4uY2xzLTF7ZmlsbDojMGE2ZWQxO30uY2xzLTJ7ZmlsbDojMDUzYjcwO30uY2xzLTN7ZmlsbDojMDc0ZDkyO308L3N0eWxlPjwvZGVmcz48dGl0bGU+YXNlX2NpcmNsZTwvdGl0bGU+PHBhdGggY2xhc3M9ImNscy0xIiBkPSJNMzguOTQzLDIzLjYzMmExMy4yMTEsMTMuMjExLDAsMCwwLTUuMTYyLS44ODIsMTMuMjA2LDEzLjIwNiwwLDAsMC01LjE2MS44ODIsNC4xMzUsNC4xMzUsMCwwLDAtMS41LDEuMDQzLDIuMDg5LDIuMDg5LDAsMCwwLS41NjIsMS40VjM4LjYzMWEyLjAxNywyLjAxNywwLDAsMCwuNTYyLDEuNCw0LjEzNSw0LjEzNSwwLDAsMCwxLjUsMS4wNDNBMTIuNDU3LDEyLjQ1NywwLDAsMCwzMy43ODEsNDJhMTMuMjExLDEzLjIxMSwwLDAsMCw1LjE2Mi0uODgyLDQuMTQ0LDQuMTQ0LDAsMCwwLDEuNS0xLjA0MywyLjE2NSwyLjE2NSwwLDAsMCwuNTYxLTEuNFYyNi4wNzlhMi4wODgsMi4wODgsMCwwLDAtLjU2MS0xLjRBNC4xNDQsNC4xNDQsMCwwLDAsMzguOTQzLDIzLjYzMlpNMzkuNCwzOC42NzFjMCwuNDgyLS4xNTQuNjgyLTEuMTI2LDEuMDQzYTEyLjkxOSwxMi45MTksMCwwLDEtNC40ODkuNjgyLDEyLjkxMywxMi45MTMsMCwwLDEtNC40ODgtLjY4MmMtLjkzNS0uMzYxLTEuMTI2LS42LTEuMTI2LTEuMDQzdi0yLjJBNC43NzgsNC43NzgsMCwwLDAsMzAsMzcuMTg4YTE1LjIsMTUuMiwwLDAsMCwzLjc3Ny40NDEsMTUuNzQ0LDE1Ljc0NCwwLDAsMCwzLjgxNS0uNDQxLDQuMzU5LDQuMzU5LDAsMCwwLDEuOC0uNzIyWm0wLTQuMjExYzAsLjQ4Mi0uMTU0Ljc2Mi0xLjEyNiwxLjEyM2ExMi45MTksMTIuOTE5LDAsMCwxLTQuNDg5LjY4MiwxMi45MTMsMTIuOTEzLDAsMCwxLTQuNDg4LS42ODJjLS45MzUtLjM2MS0xLjEyNi0uNjgxLTEuMTI2LTEuMTIzVjMyLjNBNC44LDQuOCwwLDAsMCwzMCwzMy4yMTdhMTUuMjcsMTUuMjcsMCwwLDAsMy43NzcuNEE5LjQyOSw5LjQyOSwwLDAsMCwzOS40LDMyLjI1NVpNMzguMTA5LDI3LjRhMTEuOTYxLDExLjk2MSwwLDAsMS00LjMyOC42ODIsMTEuOTYxLDExLjk2MSwwLDAsMS00LjMyOC0uNjgyYy0uOTM1LS40LTEuMjg2LS44NDItMS4yODYtMS4zMjMsMC0uODQzLDEuNzI0LTEuODQ1LDUuNjE0LTEuODQ1LDMuOTI4LDAsNS42MTUsMSw1LjYxNSwxLjg0NUMzOS40LDI2LjU2LDM5LjA4MiwyNywzOC4xMDksMjcuNFoiLz48cGF0aCBjbGFzcz0iY2xzLTIiIGQ9Ik0yNC44NCwyNy45OTJIMTcuOTA2YTMuMTQzLDMuMTQzLDAsMCwxLS45NzctNi4xMzRsMS4zNDYtLjQ0My0uMTUzLTEuNDA4QTQuNzMzLDQuNzMzLDAsMCwxLDE5LDE2LjkyNGEzLjgsMy44LDAsMCwxLDIuODE5LTEuMTczQTMuNTM0LDMuNTM0LDAsMCwxLDI1LjIzNSwxOC4xTDI2LDIwLjAyM2wxLjc2Ny0xLjA2NmEyLjI4NywyLjI4NywwLDAsMSwxLjE5Mi0uMzQ1LDIuMzI2LDIuMzI2LDAsMCwxLDIuMjgzLDEuOWwuMDkzLjQ5M2gxLjc0OWMtLjAyNy0uMjU2LS4wNjMtLjUyOC0uMTIyLS44MTdhNC4wNDksNC4wNDksMCwwLDAtNi4xLTIuNzI1QTUuNTE0LDUuNTE0LDAsMCwwLDIxLjc4MiwxNGMtNS45NDUuMTQxLTUuNCw2LjItNS40LDYuMmE0Ljg5Myw0Ljg5MywwLDAsMCwxLjUyNCw5LjU0N0gyNC44NFoiLz48cGF0aCBjbGFzcz0iY2xzLTMiIGQ9Ik0yOCw2QTIyLDIyLDAsMSwxLDYsMjgsMjIuMDI1LDIyLjAyNSwwLDAsMSwyOCw2bTAtMkEyNCwyNCwwLDEsMCw1MiwyOCwyNCwyNCwwLDAsMCwyOCw0WiIvPjwvc3ZnPg==" vertex="1" parent="1">
          <mxGeometry x="640" y="560" width="48" height="48" as="geometry" />
        </mxCell>
        <mxCell id="_p2IHeMZrTxMRXlRe7gt-23" value="" style="edgeStyle=orthogonalEdgeStyle;rounded=0;orthogonalLoop=1;jettySize=auto;html=1;exitX=0;exitY=0.25;exitDx=0;exitDy=0;endArrow=none;" edge="1" parent="1" source="_p2IHeMZrTxMRXlRe7gt-11" target="_p2IHeMZrTxMRXlRe7gt-4">
          <mxGeometry relative="1" as="geometry">
            <mxPoint x="510" y="596.5" as="sourcePoint" />
            <mxPoint x="360" y="525" as="targetPoint" />
          </mxGeometry>
        </mxCell>
        <mxCell id="_p2IHeMZrTxMRXlRe7gt-4" value="Cloud Foundry Runtime " style="shape=image;verticalLabelPosition=bottom;verticalAlign=top;imageAspect=0;aspect=fixed;image=data:image/svg+xml,PHN2ZyB4bWxucz0iaHR0cDovL3d3dy53My5vcmcvMjAwMC9zdmciIGlkPSJjbG91ZC1mb3VuZHJ5LXJ1bnRpbWUiIHZpZXdCb3g9IjQuMDAwMDAxOTA3MzQ4NjMzIDMuOTk5OTk5MDQ2MzI1NjgzNiA0OCA0Ny45OTk5OTYxODUzMDI3MzQiIHdpZHRoPSI0OCIgaGVpZ2h0PSI0Ny45OTk5OTYxODUzMDI3MzQiPjxkZWZzPjxzdHlsZT4uY2xzLTF7ZmlsbDojMDc0ZDkyO30uY2xzLTJ7ZmlsbDojMDUzYjcwO30uY2xzLTN7ZmlsbDojMGE2ZWQxO308L3N0eWxlPjwvZGVmcz48dGl0bGU+Y2xvdWQtZm91bmRyeS1ydW50aW1lPC90aXRsZT48cGF0aCBjbGFzcz0iY2xzLTEiIGQ9Ik0yOCw2QTIyLDIyLDAsMSwxLDYsMjgsMjIuMDI1LDIyLjAyNSwwLDAsMSwyOCw2bTAtMkEyNCwyNCwwLDEsMCw1MiwyOCwyNCwyNCwwLDAsMCwyOCw0WiIvPjxwYXRoIGNsYXNzPSJjbHMtMiIgZD0iTTE3LjI1LDI4LjE0OGEuODc1Ljg3NSwwLDAsMC0uODc1LS44NzVoLTMuNWEuODc1Ljg3NSwwLDEsMCwwLDEuNzVoMy41QS44NzUuODc1LDAsMCwwLDE3LjI1LDI4LjE0OFoiLz48cGF0aCBjbGFzcz0iY2xzLTIiIGQ9Ik0xNC42MjUsMjMuNzczaDMuNWEuODc1Ljg3NSwwLDAsMCwwLTEuNzVoLTMuNWEuODc1Ljg3NSwwLDEsMCwwLDEuNzVaIi8+PHBhdGggY2xhc3M9ImNscy0yIiBkPSJNMTguMTI1LDMyLjUyM2gtMS43OGEuODc1Ljg3NSwwLDEsMCwwLDEuNzVoMS43OGEuODc1Ljg3NSwwLDAsMCwwLTEuNzVaIi8+PHBhdGggY2xhc3M9ImNscy0zIiBkPSJNMzguNzg3LDI2LjM3NWMtLjAzNCwwLS4wNjcsMC0uMSwwSDM3LjU0OWwtLjQ5Mi0xLjE4OC44MTktLjgyMWExLjM2NCwxLjM2NCwwLDAsMCwuMzctLjk0MywxLjIyNiwxLjIyNiwwLDAsMC0uMzctLjlsLTEuOS0xLjg4NmExLjIyNiwxLjIyNiwwLDAsMC0uOS0uMzcsMS4yNjgsMS4yNjgsMCwwLDAtLjk0My4zN2wtLjgyMS44Mi0xLjE5LS40OTNWMTkuODEzQTEuMjYyLDEuMjYyLDAsMCwwLDMwLjkwNywxOC41YS44MzQuODM0LDAsMCwwLS4xLDBIMjguMTgyYTEuMjYzLDEuMjYzLDAsMCwwLTEuMzEzLDEuMjEyYzAsLjAzMywwLC4wNjcsMCwuMXYxLjE0OGwtMS4xOS40OTMtLjgxOS0uODJhMS4yNzcsMS4yNzcsMCwwLDAtLjk0My0uMzcsMS4yMjYsMS4yMjYsMCwwLDAtLjkuMzdsLTEuODc5LDEuODkxYTEuMjI2LDEuMjI2LDAsMCwwLS4zNy45LDEuMzY3LDEuMzY3LDAsMCwwLC4zNy45NDRsLjgyLjgyLS40OTMsMS4xODNIMjAuMzE0QTEuMjY0LDEuMjY0LDAsMCwwLDE5LDI3LjU4NmEuODY4Ljg2OCwwLDAsMCwwLC4xdjIuNjI1YTEuMywxLjMsMCwwLDAsLjM2OS45MjQsMS4yNDIsMS4yNDIsMCwwLDAsLjk0My4zODhIMjEuNDZsLjQ5NCwxLjE5LS44MjEuODIxYTEuMzM5LDEuMzM5LDAsMCwwLDAsMS44NDZsMS44OTIsMS44ODZhMS4yMjMsMS4yMjMsMCwwLDAsLjkuMzcsMS4yNzksMS4yNzksMCwwLDAsLjk0My0uMzdsLjgxOS0uODYxLDEuMTkuNTI1djEuMTVhMS4yOTEsMS4yOTEsMCwwLDAsLjM2OS45MjIsMS4yNDIsMS4yNDIsMCwwLDAsLjk0LjRoMi42MjVhMS4yNDQsMS4yNDQsMCwwLDAsLjk0My0uMzg5LDEuMywxLjMsMCwwLDAsLjM2OS0uOTIydi0xLjE1bDEuMTktLjUyNS44MjEuODYxYTEuMjY4LDEuMjY4LDAsMCwwLC45NDMuMzcsMS4yMjYsMS4yMjYsMCwwLDAsLjktLjM3bDEuODg3LTEuOWExLjMzOSwxLjMzOSwwLDAsMCwwLTEuODQ2bC0uODE5LS44MjEuNS0xLjE4M0gzOC43YTEuMjQ0LDEuMjQ0LDAsMCwwLC45NDMtLjM4OEExLjI5MywxLjI5MywwLDAsMCw0MCwzMC4zMTNWMjcuNjg4QTEuMjYzLDEuMjYzLDAsMCwwLDM4Ljc4NywyNi4zNzVabS0uNTM4LDMuNUgzNi4zMjRMMzQuOTcsMzMuMjE0bDEuMzQ0LDEuMzQ0LTEuMjUsMS4yNDktMS40MjQtMS41LTMuMjY2LDEuNTE0VjM3Ljc1aC0xLjc1VjM1LjgyNWwtMy4yNTgtMS41MTktMS40MzEsMS41LTEuMjUtMS4yNTEsMS4zNDQtMS4zNDQtMS4yLTMuMzM5SDIwLjc1di0xLjc1aDIuMDgybDEuMi0zLjMzOS0xLjM0Mi0xLjM0NCwxLjI1Ny0xLjI1NiwxLjM0NywxLjM0NiwzLjMzNS0xLjJWMjAuMjVoMS43NXYyLjA3NGwzLjM0MSwxLjIsMS4zNDItMS4zNDIsMS4yNTcsMS4yNTZMMzQuOTg1LDI0LjgybDEuMzM5LDMuMzA1aDEuOTI1WiIvPjxwYXRoIGNsYXNzPSJjbHMtMyIgZD0iTTMzLjUxLDI4LjZsLTUuODY5LTMuMDI1YS42NTguNjU4LDAsMCwwLS4yOTItLjA3NC41MjcuNTI3LDAsMCwwLS4zODQuMTY1LjU3MS41NzEsMCwwLDAtLjE2NC40MTh2NS44NzFhLjUxNS41MTUsMCwwLDAsLjE2NC40LjU3Mi41NzIsMCwwLDAsLjM4NC4xNDUuNjQ0LjY0NCwwLDAsMCwuMjkyLS4wNzNsNS44NjktMi44NDRhLjU2Mi41NjIsMCwwLDAsMC0uOTg0WiIvPjwvc3ZnPg==" vertex="1" parent="1">
          <mxGeometry x="400" y="560" width="48" height="48" as="geometry" />
        </mxCell>
      </root>
    </mxGraphModel>
  </diagram>
</mxfile>
